<svg width="72" height="73" viewBox="0 0 72 73" fill="none" xmlns="http://www.w3.org/2000/svg">
<circle cx="36" cy="36.5" r="36" fill="#265EE1"/>
<g clip-path="url(#clip0_116_10173)">
<path d="M36.0014 18.7676C46.0608 18.7676 54.2157 26.9224 54.2157 36.9819C54.2157 47.0412 46.0608 55.1961 36.0014 55.1961C25.9419 55.1961 17.7871 47.0412 17.7871 36.9819C17.7871 26.9224 25.9419 18.7676 36.0014 18.7676ZM36.0014 26.0533C34.9954 26.0533 34.18 26.8688 34.18 27.8747V36.9819C34.18 37.4649 34.3719 37.9283 34.7135 38.2698L40.1777 43.7341C40.889 44.4453 42.0423 44.4453 42.7536 43.7341C43.4649 43.0228 43.4649 41.8695 42.7536 41.1582L37.8228 36.2274V27.8747C37.8228 26.8688 37.0074 26.0533 36.0014 26.0533Z" fill="#FAFAFA"/>
</g>
<defs>
<clipPath id="clip0_116_10173">
<rect width="43.7143" height="43.7143" fill="white" transform="translate(14.1445 14.644)"/>
</clipPath>
</defs>
</svg>
