<svg width="72" height="73" viewBox="0 0 72 73" fill="none" xmlns="http://www.w3.org/2000/svg">
<circle cx="36" cy="36.5" r="36" fill="#265EE1"/>
<path d="M52.2303 35.379V27.3829C52.2303 25.8894 51.101 24.1954 49.6985 23.6308L39.5531 19.4779C37.2763 18.549 34.7081 18.549 32.4313 19.4779L22.286 23.6308C20.9017 24.1954 19.7725 25.8894 19.7725 27.3829V35.379C19.7725 44.2858 26.2385 52.6279 35.0724 55.0686C35.6735 55.2326 36.3292 55.2326 36.9302 55.0686C45.7642 52.6279 52.2303 44.2858 52.2303 35.379ZM37.3674 38.5665V43.3569C37.3674 44.1036 36.7481 44.7229 36.0013 44.7229C35.2545 44.7229 34.6352 44.1036 34.6352 43.3569V38.5665C32.7956 37.9836 31.4478 36.2715 31.4478 34.2497C31.4478 31.7362 33.4877 29.6962 36.0013 29.6962C38.5149 29.6962 40.5549 31.7362 40.5549 34.2497C40.5549 36.2897 39.207 37.9836 37.3674 38.5665Z" fill="#FAFAFA"/>
</svg>
